<svg version="1.1" xmlns="http://www.w3.org/2000/svg" xmlns:xlink="http://www.w3.org/1999/xlink" width="756" height="510"><defs/><g><g transform="translate(-86,-6) scale(1,1)"><rect fill="#C0C0C0" stroke="none" x="103" y="103" width="254" height="190" opacity="0.2"/></g><g transform="translate(-86,-6) scale(1,1)"><rect fill="#ffffff" stroke="none" x="96" y="96" width="254" height="190"/></g><g transform="translate(-86,-6) scale(1,1)"><path fill="none" stroke="#000000" d="M 96 96 L 350 96 L 350 286 L 96 286 L 96 96 Z Z" stroke-miterlimit="10"/></g><g transform="translate(-86,-6) scale(1,1)"><path fill="none" stroke="#000000" d="M 96 121 L 350 121" stroke-miterlimit="10"/></g><g transform="translate(-86,-6) scale(1,1)"><path fill="none" stroke="#000000" d="M 96 159 L 350 159" stroke-miterlimit="10"/></g><g transform="translate(-86,-6) scale(1,1)"><g><path fill="none" stroke="none"/><text fill="#000000" stroke="none" font-family="Arial" font-size="13px" font-style="normal" font-weight="bold" text-decoration="none" x="185.5" y="115.5">.game.Game</text></g></g><g transform="translate(-86,-6) scale(1,1)"><g><path fill="none" stroke="none"/><text fill="#000000" stroke="none" font-family="Arial" font-size="13px" font-style="normal" font-weight="normal" text-decoration="none" x="101" y="138.5">-players: .game.Player[1..2]</text><path fill="none" stroke="#000000" d="M 101 138.5 L 262 138.5" stroke-miterlimit="10"/></g></g><g transform="translate(-86,-6) scale(1,1)"><g><path fill="none" stroke="none"/><text fill="#000000" stroke="none" font-family="Arial" font-size="13px" font-style="normal" font-weight="normal" text-decoration="none" x="101" y="153.5">-gameLevel: GameLevel</text><path fill="none" stroke="#000000" d="M 101 153.5 L 242 153.5" stroke-miterlimit="10"/></g></g><g transform="translate(-86,-6) scale(1,1)"><g><path fill="none" stroke="none"/><text fill="#000000" stroke="none" font-family="Arial" font-size="13px" font-style="normal" font-weight="normal" text-decoration="none" x="101" y="176.5">+Game()</text></g></g><g transform="translate(-86,-6) scale(1,1)"><g><path fill="none" stroke="none"/><text fill="#000000" stroke="none" font-family="Arial" font-size="13px" font-style="normal" font-weight="normal" text-decoration="none" x="101" y="191.5">+getPlayers(): .game.Player[1..2]</text><path fill="none" stroke="#000000" d="M 101 191.5 L 294 191.5" stroke-miterlimit="10"/></g></g><g transform="translate(-86,-6) scale(1,1)"><g><path fill="none" stroke="none"/><text fill="#000000" stroke="none" font-family="Arial" font-size="13px" font-style="normal" font-weight="normal" text-decoration="none" x="101" y="206.5">+play(): void</text><path fill="none" stroke="#000000" d="M 101 206.5 L 173 206.5" stroke-miterlimit="10"/></g></g><g transform="translate(-86,-6) scale(1,1)"><g><path fill="none" stroke="none"/><text fill="#000000" stroke="none" font-family="Arial" font-size="13px" font-style="normal" font-weight="normal" text-decoration="none" x="101" y="221.5">-promptForPlayerInfo(): .game.Player[1..2]</text><path fill="none" stroke="#000000" d="M 101 221.5 L 346 221.5" stroke-miterlimit="10"/></g></g><g transform="translate(-86,-6) scale(1,1)"><g><path fill="none" stroke="none"/><text fill="#000000" stroke="none" font-family="Arial" font-size="13px" font-style="normal" font-weight="normal" text-decoration="none" x="101" y="236.5">+endGame(winner: .game.Player): void</text><path fill="none" stroke="#000000" d="M 101 236.5 L 327 236.5" stroke-miterlimit="10"/></g></g><g transform="translate(-86,-6) scale(1,1)"><g><path fill="none" stroke="none"/><text fill="#000000" stroke="none" font-family="Arial" font-size="13px" font-style="normal" font-weight="normal" text-decoration="none" x="101" y="251.5">-displayInstructions(): void</text><path fill="none" stroke="#000000" d="M 101 251.5 L 254 251.5" stroke-miterlimit="10"/></g></g><g transform="translate(-86,-6) scale(1,1)"><g><path fill="none" stroke="none"/><text fill="#000000" stroke="none" font-family="Arial" font-size="13px" font-style="normal" font-weight="normal" text-decoration="none" x="101" y="266.5">-promptToPlayAgain(): Boolean</text><path fill="none" stroke="#000000" d="M 101 266.5 L 282 266.5" stroke-miterlimit="10"/></g></g><g transform="translate(-86,-6) scale(1,1)"><g><path fill="none" stroke="none"/><text fill="#000000" stroke="none" font-family="Arial" font-size="13px" font-style="normal" font-weight="normal" text-decoration="none" x="101" y="281.5">-doesNeedInstructions(): Boolean</text><path fill="none" stroke="#000000" d="M 101 281.5 L 294 281.5" stroke-miterlimit="10"/></g></g><g transform="translate(-86,-6) scale(1,1)"><rect fill="#C0C0C0" stroke="none" x="103" y="423" width="96" height="90" opacity="0.2"/></g><g transform="translate(-86,-6) scale(1,1)"><rect fill="#ffffff" stroke="none" x="96" y="416" width="96" height="90"/></g><g transform="translate(-86,-6) scale(1,1)"><path fill="none" stroke="#000000" d="M 96 416 L 192 416 L 192 506 L 96 506 L 96 416 Z Z" stroke-miterlimit="10"/></g><g transform="translate(-86,-6) scale(1,1)"><path fill="none" stroke="#000000" d="M 96 454 L 192 454" stroke-miterlimit="10"/></g><g transform="translate(-86,-6) scale(1,1)"><g><path fill="none" stroke="none"/><text fill="#000000" stroke="none" font-family="Arial" font-size="13px" font-style="normal" font-weight="normal" text-decoration="none" x="101.5" y="433.5">«enumeration»</text></g></g><g transform="translate(-86,-6) scale(1,1)"><g><path fill="none" stroke="none"/><text fill="#000000" stroke="none" font-family="Arial" font-size="13px" font-style="normal" font-weight="bold" text-decoration="none" x="111" y="448.5">GameLevel</text></g></g><g transform="translate(-86,-6) scale(1,1)"><g><path fill="none" stroke="none"/><text fill="#000000" stroke="none" font-family="Arial" font-size="13px" font-style="normal" font-weight="normal" text-decoration="none" x="101" y="471.5">EASY</text></g></g><g transform="translate(-86,-6) scale(1,1)"><g><path fill="none" stroke="none"/><text fill="#000000" stroke="none" font-family="Arial" font-size="13px" font-style="normal" font-weight="normal" text-decoration="none" x="101" y="486.5">MEDIUM</text></g></g><g transform="translate(-86,-6) scale(1,1)"><g><path fill="none" stroke="none"/><text fill="#000000" stroke="none" font-family="Arial" font-size="13px" font-style="normal" font-weight="normal" text-decoration="none" x="101" y="501.5">HARD</text></g></g><g transform="translate(-86,-6) scale(1,1)"><rect fill="#C0C0C0" stroke="none" x="103" y="319" width="246" height="85" opacity="0.2"/></g><g transform="translate(-86,-6) scale(1,1)"><rect fill="#ffffff" stroke="none" x="96" y="312" width="246" height="85"/></g><g transform="translate(-86,-6) scale(1,1)"><path fill="none" stroke="#000000" d="M 96 312 L 342 312 L 342 397 L 96 397 L 96 312 Z Z" stroke-miterlimit="10"/></g><g transform="translate(-86,-6) scale(1,1)"><path fill="none" stroke="#000000" d="M 96 337 L 342 337" stroke-miterlimit="10"/></g><g transform="translate(-86,-6) scale(1,1)"><path fill="none" stroke="#000000" d="M 96 360 L 342 360" stroke-miterlimit="10"/></g><g transform="translate(-86,-6) scale(1,1)"><g><path fill="none" stroke="none"/><text fill="#000000" stroke="none" font-family="Arial" font-size="13px" font-style="normal" font-weight="bold" text-decoration="none" x="180.5" y="331.5">.game.Player</text></g></g><g transform="translate(-86,-6) scale(1,1)"><g><path fill="none" stroke="none"/><text fill="#000000" stroke="none" font-family="Arial" font-size="13px" font-style="normal" font-weight="normal" text-decoration="none" x="101" y="354.5">-name: String</text></g></g><g transform="translate(-86,-6) scale(1,1)"><g><path fill="none" stroke="none"/><text fill="#000000" stroke="none" font-family="Arial" font-size="13px" font-style="normal" font-weight="normal" text-decoration="none" x="101" y="377.5">+Player(name: String)</text></g></g><g transform="translate(-86,-6) scale(1,1)"><g><path fill="none" stroke="none"/><text fill="#000000" stroke="none" font-family="Arial" font-size="13px" font-style="normal" font-weight="normal" text-decoration="none" x="101" y="392.5">+getName(): String</text></g></g><g transform="translate(-86,-6) scale(1,1)"><rect fill="#C0C0C0" stroke="none" x="439" y="287" width="249" height="85" opacity="0.2"/></g><g transform="translate(-86,-6) scale(1,1)"><rect fill="#ffffff" stroke="none" x="432" y="280" width="249" height="85"/></g><g transform="translate(-86,-6) scale(1,1)"><path fill="none" stroke="#000000" d="M 432 280 L 681 280 L 681 365 L 432 365 L 432 280 Z Z" stroke-miterlimit="10"/></g><g transform="translate(-86,-6) scale(1,1)"><path fill="none" stroke="#000000" d="M 432 305 L 681 305" stroke-miterlimit="10"/></g><g transform="translate(-86,-6) scale(1,1)"><path fill="none" stroke="#000000" d="M 432 328 L 681 328" stroke-miterlimit="10"/></g><g transform="translate(-86,-6) scale(1,1)"><g><path fill="none" stroke="none"/><text fill="#000000" stroke="none" font-family="Arial" font-size="13px" font-style="normal" font-weight="bold" text-decoration="none" x="516.5" y="299.5">.objects.Heap</text></g></g><g transform="translate(-86,-6) scale(1,1)"><g><path fill="none" stroke="none"/><text fill="#000000" stroke="none" font-family="Arial" font-size="13px" font-style="normal" font-weight="normal" text-decoration="none" x="437" y="322.5">-blocks: List&lt;Blocks&gt;</text></g></g><g transform="translate(-86,-6) scale(1,1)"><g><path fill="none" stroke="none"/><text fill="#000000" stroke="none" font-family="Arial" font-size="13px" font-style="normal" font-weight="normal" text-decoration="none" x="437" y="345.5">+isEmpty(): Boolean</text></g></g><g transform="translate(-86,-6) scale(1,1)"><g><path fill="none" stroke="none"/><text fill="#000000" stroke="none" font-family="Arial" font-size="13px" font-style="normal" font-weight="normal" text-decoration="none" x="437" y="360.5">+removeBlocks(nofBlocks: int): Boolean</text></g></g><g transform="translate(-86,-6) scale(1,1)"><rect fill="#C0C0C0" stroke="none" x="703" y="287" width="97" height="44" opacity="0.2"/></g><g transform="translate(-86,-6) scale(1,1)"><rect fill="#ffffff" stroke="none" x="696" y="280" width="97" height="44"/></g><g transform="translate(-86,-6) scale(1,1)"><path fill="none" stroke="#000000" d="M 696 280 L 793 280 L 793 324 L 696 324 L 696 280 Z Z" stroke-miterlimit="10"/></g><g transform="translate(-86,-6) scale(1,1)"><path fill="none" stroke="#000000" d="M 696 305 L 793 305" stroke-miterlimit="10"/></g><g transform="translate(-86,-6) scale(1,1)"><path fill="none" stroke="#000000" d="M 696 315 L 793 315" stroke-miterlimit="10"/></g><g transform="translate(-86,-6) scale(1,1)"><g><path fill="none" stroke="none"/><text fill="#000000" stroke="none" font-family="Arial" font-size="13px" font-style="normal" font-weight="bold" text-decoration="none" x="703" y="299.5">.objects.Block</text></g></g><g transform="translate(-86,-6) scale(1,1)"><rect fill="#C0C0C0" stroke="none" x="439" y="103" width="400" height="160" opacity="0.2"/></g><g transform="translate(-86,-6) scale(1,1)"><rect fill="#ffffff" stroke="none" x="432" y="96" width="400" height="160"/></g><g transform="translate(-86,-6) scale(1,1)"><path fill="none" stroke="#000000" d="M 432 96 L 832 96 L 832 256 L 432 256 L 432 96 Z Z" stroke-miterlimit="10"/></g><g transform="translate(-86,-6) scale(1,1)"><path fill="none" stroke="#000000" d="M 432 121 L 832 121" stroke-miterlimit="10"/></g><g transform="translate(-86,-6) scale(1,1)"><path fill="none" stroke="#000000" d="M 432 144 L 832 144" stroke-miterlimit="10"/></g><g transform="translate(-86,-6) scale(1,1)"><g><path fill="none" stroke="none"/><text fill="#000000" stroke="none" font-family="Arial" font-size="13px" font-style="normal" font-weight="bold" text-decoration="none" x="581.5" y="115.5">.game.GamePlay</text></g></g><g transform="translate(-86,-6) scale(1,1)"><g><path fill="none" stroke="none"/><text fill="#000000" stroke="none" font-family="Arial" font-size="13px" font-style="normal" font-weight="normal" text-decoration="none" x="437" y="138.5">-nofEmptyHeaps: int</text></g></g><g transform="translate(-86,-6) scale(1,1)"><g><path fill="none" stroke="none"/><text fill="#000000" stroke="none" font-family="Arial" font-size="13px" font-style="normal" font-weight="normal" text-decoration="none" x="437" y="161.5">+init(gameLevel: GameLevel, doesNeedInstructions: Boolean): void</text><path fill="none" stroke="#000000" d="M 437 161.5 L 828 161.5" stroke-miterlimit="10"/></g></g><g transform="translate(-86,-6) scale(1,1)"><g><path fill="none" stroke="none"/><text fill="#000000" stroke="none" font-family="Arial" font-size="13px" font-style="normal" font-weight="normal" text-decoration="none" x="437" y="176.5">+GamePlay(players: .game.Player[1..2])</text></g></g><g transform="translate(-86,-6) scale(1,1)"><g><path fill="none" stroke="none"/><text fill="#000000" stroke="none" font-family="Arial" font-size="13px" font-style="normal" font-weight="normal" text-decoration="none" x="437" y="191.5">-chooseHeap(): int</text></g></g><g transform="translate(-86,-6) scale(1,1)"><g><path fill="none" stroke="none"/><text fill="#000000" stroke="none" font-family="Arial" font-size="13px" font-style="normal" font-weight="normal" text-decoration="none" x="437" y="206.5">-chooseNumberOfBlocks(): int</text></g></g><g transform="translate(-86,-6) scale(1,1)"><g><path fill="none" stroke="none"/><text fill="#000000" stroke="none" font-family="Arial" font-size="13px" font-style="normal" font-weight="normal" text-decoration="none" x="437" y="221.5">-isValidMove(heap: .objects.Heap, nofBlocks: int): Boolean</text></g></g><g transform="translate(-86,-6) scale(1,1)"><g><path fill="none" stroke="none"/><text fill="#000000" stroke="none" font-family="Arial" font-size="13px" font-style="normal" font-weight="normal" text-decoration="none" x="437" y="236.5">-setupHeaps(): void</text></g></g><g transform="translate(-86,-6) scale(1,1)"><g><path fill="none" stroke="none"/><text fill="#000000" stroke="none" font-family="Arial" font-size="13px" font-style="normal" font-weight="normal" text-decoration="none" x="437" y="251.5">+isHeapEmpty(heap: .objects.Heap): Boolean</text></g></g><g transform="translate(-86,-6) scale(1,1)"><rect fill="#C0C0C0" stroke="none" x="127" y="23" width="194" height="57" opacity="0.2"/></g><g transform="translate(-86,-6) scale(1,1)"><rect fill="#ffffff" stroke="none" x="120" y="16" width="194" height="57"/></g><g transform="translate(-86,-6) scale(1,1)"><path fill="none" stroke="#000000" d="M 120 16 L 314 16 L 314 73 L 120 73 L 120 16 Z Z" stroke-miterlimit="10"/></g><g transform="translate(-86,-6) scale(1,1)"><path fill="none" stroke="#000000" d="M 120 41 L 314 41" stroke-miterlimit="10"/></g><g transform="translate(-86,-6) scale(1,1)"><path fill="none" stroke="#000000" d="M 120 51 L 314 51" stroke-miterlimit="10"/></g><g transform="translate(-86,-6) scale(1,1)"><g><path fill="none" stroke="none"/><text fill="#000000" stroke="none" font-family="Arial" font-size="13px" font-style="normal" font-weight="bold" text-decoration="none" x="130.5" y="35.5">edu.neumont.csc130.nim.Nim</text></g></g><g transform="translate(-86,-6) scale(1,1)"><g><path fill="none" stroke="none"/><text fill="#000000" stroke="none" font-family="Arial" font-size="13px" font-style="normal" font-weight="normal" text-decoration="none" x="125" y="68.5">+main(args: String[1..*]): void</text><path fill="none" stroke="#000000" d="M 125 68.5 L 296 68.5" stroke-miterlimit="10"/></g></g></g></svg>